# xmcd
#
# Track frame offsets: 
#        150
#        17554
#        35681
#        56091
#        74322
#        90786
#        103273
#        117985
#        127472
#        140598
#        156755
#        179106
#        194663
#        213446
#        226564
#        243561
#        257575
#
# Disc length: 3680 seconds
#
# Revision: 0
# Processed by: cddbd v1.5.2PL0 Copyright (c) Steve Scherf et al.
# Submitted via: ExactAudioCopyFreeDBPlugin 1.0
#
DISCID=fc0e5e11
DTITLE=Duane Dickinson - When the Work's All Done this Fall
DYEAR=2003
DGENRE=Country
TTITLE0=When the Work's All Done this Fall
TTITLE1=Texas in the Spring
TTITLE2=Strawberry Roan
TTITLE3=High Toned Dance
TTITLE4=The Night Guard
TTITLE5=Tying Knots in the Devil's Tail
TTITLE6=Cowboy's Meditation
TTITLE7=My Home's in Montana
TTITLE8=D-2 Horse Wrangler
TTITLE9=The Dreary Black Hills
TTITLE10=Cowboy's Victimized
TTITLE11='Longside the Santa Fe Trail
TTITLE12=Little Joe the Wrangler
TTITLE13=Goodbye Ol' Paint
TTITLE14=Plain Bull
TTITLE15=Git Along Little Dogies
TTITLE16=The Long Long Texas Trail
EXTD=
EXTT0=
EXTT1=
EXTT2=
EXTT3=
EXTT4=
EXTT5=
EXTT6=
EXTT7=
EXTT8=
EXTT9=
EXTT10=
EXTT11=
EXTT12=
EXTT13=
EXTT14=
EXTT15=
EXTT16=
PLAYORDER=
